<mxfile>
    <diagram id="N_f7JGh9qu5mkWohpCK6" name="Page-1">
        <mxGraphModel dx="1794" dy="931" grid="1" gridSize="10" guides="1" tooltips="1" connect="1" arrows="1" fold="1" page="1" pageScale="1" pageWidth="850" pageHeight="1100" math="0" shadow="0">
            <root>
                <mxCell id="0"/>
                <mxCell id="1" parent="0"/>
                <mxCell id="59" value="平衡二叉树" style="text;html=1;align=center;verticalAlign=middle;resizable=0;points=[];autosize=1;fontSize=14;fontColor=#000000;" vertex="1" parent="1">
                    <mxGeometry x="135" y="330" width="90" height="20" as="geometry"/>
                </mxCell>
                <mxCell id="2" value="1" style="ellipse;whiteSpace=wrap;html=1;aspect=fixed;sketch=1;fillColor=#1ba1e2;strokeColor=#006EAF;fontSize=20;fontColor=#000000;" parent="1" vertex="1">
                    <mxGeometry x="160" y="120" width="40" height="40" as="geometry"/>
                </mxCell>
                <mxCell id="6" value="" style="endArrow=none;html=1;entryX=0;entryY=1;entryDx=0;entryDy=0;sketch=1;fillColor=#1ba1e2;strokeColor=#006EAF;fontColor=#000000;" parent="1" target="2" edge="1">
                    <mxGeometry x="60" y="120" width="50" height="50" as="geometry">
                        <mxPoint x="134" y="186" as="sourcePoint"/>
                        <mxPoint x="210" y="320" as="targetPoint"/>
                    </mxGeometry>
                </mxCell>
                <mxCell id="8" value="" style="endArrow=none;html=1;entryX=0;entryY=0;entryDx=0;entryDy=0;exitX=1;exitY=1;exitDx=0;exitDy=0;sketch=1;fillColor=#1ba1e2;strokeColor=#006EAF;fontColor=#000000;" parent="1" source="2" edge="1">
                    <mxGeometry x="60" y="120" width="50" height="50" as="geometry">
                        <mxPoint x="650" y="171.71572875253787" as="sourcePoint"/>
                        <mxPoint x="225.85786437626803" y="185.85786437626803" as="targetPoint"/>
                    </mxGeometry>
                </mxCell>
                <mxCell id="9" value="2" style="ellipse;whiteSpace=wrap;html=1;aspect=fixed;sketch=1;fillColor=#1ba1e2;strokeColor=#006EAF;fontSize=20;direction=west;fontColor=#000000;" parent="1" vertex="1">
                    <mxGeometry x="100" y="180" width="40" height="40" as="geometry"/>
                </mxCell>
                <mxCell id="10" value="3" style="ellipse;whiteSpace=wrap;html=1;aspect=fixed;sketch=1;fillColor=#1ba1e2;strokeColor=#006EAF;fontSize=20;direction=west;fontColor=#000000;" parent="1" vertex="1">
                    <mxGeometry x="220" y="180" width="40" height="40" as="geometry"/>
                </mxCell>
                <mxCell id="11" value="4" style="ellipse;whiteSpace=wrap;html=1;aspect=fixed;sketch=1;fillColor=#1ba1e2;strokeColor=#006EAF;fontSize=20;direction=west;fontColor=#000000;" parent="1" vertex="1">
                    <mxGeometry x="60" y="260" width="40" height="40" as="geometry"/>
                </mxCell>
                <mxCell id="12" value="5" style="ellipse;whiteSpace=wrap;html=1;aspect=fixed;sketch=1;fillColor=#1ba1e2;strokeColor=#006EAF;fontSize=20;direction=west;fontColor=#000000;" parent="1" vertex="1">
                    <mxGeometry x="140" y="260" width="40" height="40" as="geometry"/>
                </mxCell>
                <mxCell id="14" value="" style="endArrow=none;html=1;exitX=1;exitY=0;exitDx=0;exitDy=0;sketch=1;fillColor=#1ba1e2;strokeColor=#006EAF;fontColor=#000000;" parent="1" target="9" edge="1">
                    <mxGeometry x="60" y="120" width="50" height="50" as="geometry">
                        <mxPoint x="90" y="261.71572875253787" as="sourcePoint"/>
                        <mxPoint x="121.71572875253787" y="230" as="targetPoint"/>
                    </mxGeometry>
                </mxCell>
                <mxCell id="15" value="" style="endArrow=none;html=1;sketch=1;fillColor=#1ba1e2;strokeColor=#006EAF;fontColor=#000000;" parent="1" source="12" target="9" edge="1">
                    <mxGeometry x="60" y="120" width="50" height="50" as="geometry">
                        <mxPoint x="130" y="251.71572875253787" as="sourcePoint"/>
                        <mxPoint x="161.71572875253787" y="220" as="targetPoint"/>
                    </mxGeometry>
                </mxCell>
                <mxCell id="60" value="df = 1" style="text;html=1;align=center;verticalAlign=middle;resizable=0;points=[];autosize=1;fontSize=15;fontColor=#000000;" vertex="1" parent="1">
                    <mxGeometry x="210" y="130" width="50" height="20" as="geometry"/>
                </mxCell>
                <mxCell id="61" value="df = 0" style="text;html=1;align=center;verticalAlign=middle;resizable=0;points=[];autosize=1;fontSize=15;fontColor=#000000;" vertex="1" parent="1">
                    <mxGeometry x="269" y="190" width="50" height="20" as="geometry"/>
                </mxCell>
                <mxCell id="62" value="df = 0" style="text;html=1;align=center;verticalAlign=middle;resizable=0;points=[];autosize=1;fontSize=15;fontColor=#000000;" vertex="1" parent="1">
                    <mxGeometry x="42" y="190" width="50" height="20" as="geometry"/>
                </mxCell>
                <mxCell id="63" value="df = 0" style="text;html=1;align=center;verticalAlign=middle;resizable=0;points=[];autosize=1;fontSize=15;fontColor=#000000;" vertex="1" parent="1">
                    <mxGeometry y="270" width="50" height="20" as="geometry"/>
                </mxCell>
                <mxCell id="64" value="df = 0" style="text;html=1;align=center;verticalAlign=middle;resizable=0;points=[];autosize=1;fontSize=15;fontColor=#000000;" vertex="1" parent="1">
                    <mxGeometry x="190" y="270" width="50" height="20" as="geometry"/>
                </mxCell>
                <mxCell id="65" value="非平衡二叉树" style="text;html=1;align=center;verticalAlign=middle;resizable=0;points=[];autosize=1;fontSize=14;fontColor=#000000;" vertex="1" parent="1">
                    <mxGeometry x="500" y="330" width="100" height="20" as="geometry"/>
                </mxCell>
                <mxCell id="66" value="1" style="ellipse;whiteSpace=wrap;html=1;aspect=fixed;sketch=1;fillColor=#1ba1e2;strokeColor=#006EAF;fontSize=20;fontColor=#000000;" vertex="1" parent="1">
                    <mxGeometry x="550" y="50" width="40" height="40" as="geometry"/>
                </mxCell>
                <mxCell id="67" value="" style="endArrow=none;html=1;entryX=0;entryY=1;entryDx=0;entryDy=0;sketch=1;fillColor=#1ba1e2;strokeColor=#006EAF;fontColor=#000000;" edge="1" parent="1" target="66">
                    <mxGeometry x="450" y="50" width="50" height="50" as="geometry">
                        <mxPoint x="524" y="116" as="sourcePoint"/>
                        <mxPoint x="600" y="250" as="targetPoint"/>
                    </mxGeometry>
                </mxCell>
                <mxCell id="68" value="" style="endArrow=none;html=1;entryX=0;entryY=0;entryDx=0;entryDy=0;exitX=1;exitY=1;exitDx=0;exitDy=0;sketch=1;fillColor=#1ba1e2;strokeColor=#006EAF;fontColor=#000000;" edge="1" parent="1" source="66">
                    <mxGeometry x="450" y="50" width="50" height="50" as="geometry">
                        <mxPoint x="1040" y="101.71572875253787" as="sourcePoint"/>
                        <mxPoint x="615.857864376268" y="115.85786437626803" as="targetPoint"/>
                    </mxGeometry>
                </mxCell>
                <mxCell id="69" value="2" style="ellipse;whiteSpace=wrap;html=1;aspect=fixed;sketch=1;fillColor=#1ba1e2;strokeColor=#006EAF;fontSize=20;direction=west;fontColor=#000000;" vertex="1" parent="1">
                    <mxGeometry x="490" y="110" width="40" height="40" as="geometry"/>
                </mxCell>
                <mxCell id="70" value="3" style="ellipse;whiteSpace=wrap;html=1;aspect=fixed;sketch=1;fillColor=#1ba1e2;strokeColor=#006EAF;fontSize=20;direction=west;fontColor=#000000;" vertex="1" parent="1">
                    <mxGeometry x="610" y="110" width="40" height="40" as="geometry"/>
                </mxCell>
                <mxCell id="71" value="4" style="ellipse;whiteSpace=wrap;html=1;aspect=fixed;sketch=1;fillColor=#1ba1e2;strokeColor=#006EAF;fontSize=20;direction=west;fontColor=#000000;" vertex="1" parent="1">
                    <mxGeometry x="450" y="190" width="40" height="40" as="geometry"/>
                </mxCell>
                <mxCell id="72" value="5" style="ellipse;whiteSpace=wrap;html=1;aspect=fixed;sketch=1;fillColor=#1ba1e2;strokeColor=#006EAF;fontSize=20;direction=west;fontColor=#000000;" vertex="1" parent="1">
                    <mxGeometry x="530" y="190" width="40" height="40" as="geometry"/>
                </mxCell>
                <mxCell id="73" value="" style="endArrow=none;html=1;exitX=1;exitY=0;exitDx=0;exitDy=0;sketch=1;fillColor=#1ba1e2;strokeColor=#006EAF;fontColor=#000000;" edge="1" parent="1" target="69">
                    <mxGeometry x="450" y="50" width="50" height="50" as="geometry">
                        <mxPoint x="480" y="191.71572875253787" as="sourcePoint"/>
                        <mxPoint x="511.71572875253787" y="160" as="targetPoint"/>
                    </mxGeometry>
                </mxCell>
                <mxCell id="74" value="" style="endArrow=none;html=1;sketch=1;fillColor=#1ba1e2;strokeColor=#006EAF;fontColor=#000000;" edge="1" parent="1" source="72" target="69">
                    <mxGeometry x="450" y="50" width="50" height="50" as="geometry">
                        <mxPoint x="520" y="181.71572875253787" as="sourcePoint"/>
                        <mxPoint x="551.7157287525379" y="150" as="targetPoint"/>
                    </mxGeometry>
                </mxCell>
                <mxCell id="75" value="df = 2" style="text;html=1;align=center;verticalAlign=middle;resizable=0;points=[];autosize=1;fontSize=15;fillColor=#d80073;strokeColor=#A50040;fontColor=#000000;" vertex="1" parent="1">
                    <mxGeometry x="600" y="60" width="50" height="20" as="geometry"/>
                </mxCell>
                <mxCell id="76" value="df = 0" style="text;html=1;align=center;verticalAlign=middle;resizable=0;points=[];autosize=1;fontSize=15;fontColor=#000000;" vertex="1" parent="1">
                    <mxGeometry x="659" y="120" width="50" height="20" as="geometry"/>
                </mxCell>
                <mxCell id="77" value="df = 1" style="text;html=1;align=center;verticalAlign=middle;resizable=0;points=[];autosize=1;fontSize=15;fontColor=#000000;" vertex="1" parent="1">
                    <mxGeometry x="432" y="120" width="50" height="20" as="geometry"/>
                </mxCell>
                <mxCell id="78" value="df = 0" style="text;html=1;align=center;verticalAlign=middle;resizable=0;points=[];autosize=1;fontSize=15;fontColor=#000000;" vertex="1" parent="1">
                    <mxGeometry x="390" y="200" width="50" height="20" as="geometry"/>
                </mxCell>
                <mxCell id="79" value="df = 1" style="text;html=1;align=center;verticalAlign=middle;resizable=0;points=[];autosize=1;fontSize=15;fontColor=#000000;" vertex="1" parent="1">
                    <mxGeometry x="580" y="200" width="50" height="20" as="geometry"/>
                </mxCell>
                <mxCell id="80" value="6" style="ellipse;whiteSpace=wrap;html=1;aspect=fixed;sketch=1;fillColor=#1ba1e2;strokeColor=#006EAF;fontSize=20;direction=west;fontColor=#000000;" vertex="1" parent="1">
                    <mxGeometry x="490" y="270" width="40" height="40" as="geometry"/>
                </mxCell>
                <mxCell id="81" value="" style="endArrow=none;html=1;sketch=1;fillColor=#1ba1e2;strokeColor=#006EAF;entryX=0.733;entryY=0.035;entryDx=0;entryDy=0;entryPerimeter=0;fontColor=#000000;" edge="1" parent="1" source="80" target="72">
                    <mxGeometry x="460" y="60" width="50" height="50" as="geometry">
                        <mxPoint x="490" y="201.71572875253787" as="sourcePoint"/>
                        <mxPoint x="511.17360689063185" y="157.94699932238245" as="targetPoint"/>
                    </mxGeometry>
                </mxCell>
                <mxCell id="82" value="df = 0" style="text;html=1;align=center;verticalAlign=middle;resizable=0;points=[];autosize=1;fontSize=15;fontColor=#000000;" vertex="1" parent="1">
                    <mxGeometry x="545" y="280" width="50" height="20" as="geometry"/>
                </mxCell>
            </root>
        </mxGraphModel>
    </diagram>
</mxfile>